<svg width="70" height="70" viewBox="0 0 70 70" fill="none" xmlns="http://www.w3.org/2000/svg">
<path d="M27.533 34.76C28.373 34.9733 29.013 35.38 29.453 35.98C29.9064 36.5667 30.133 37.3 30.133 38.18C30.133 39.3933 29.6864 40.36 28.793 41.08C27.8997 41.8 26.693 42.16 25.173 42.16C24.3064 42.16 23.473 42.0267 22.673 41.76C21.873 41.4933 21.193 41.12 20.633 40.64C20.3264 40.3733 20.173 40.06 20.173 39.7C20.173 39.4067 20.253 39.16 20.413 38.96C20.5864 38.7467 20.7864 38.64 21.013 38.64C21.1464 38.64 21.2664 38.6667 21.373 38.72C21.4797 38.76 21.6264 38.8333 21.813 38.94C22.373 39.3133 22.9064 39.6 23.413 39.8C23.9197 40 24.473 40.1 25.073 40.1C25.953 40.1 26.6064 39.9267 27.033 39.58C27.4597 39.22 27.673 38.68 27.673 37.96C27.673 37.2533 27.4464 36.7333 26.993 36.4C26.553 36.0533 25.8664 35.88 24.933 35.88H23.793C23.4864 35.88 23.2464 35.78 23.073 35.58C22.913 35.3667 22.833 35.1267 22.833 34.86C22.833 34.58 22.913 34.34 23.073 34.14C23.2464 33.94 23.4864 33.84 23.793 33.84H24.593C26.4197 33.84 27.333 33.1533 27.333 31.78C27.333 31.14 27.1397 30.6467 26.753 30.3C26.3664 29.9533 25.833 29.78 25.153 29.78C24.1797 29.78 23.1397 30.1667 22.033 30.94C21.8464 31.0467 21.6997 31.1267 21.593 31.18C21.4864 31.22 21.3664 31.24 21.233 31.24C21.0064 31.24 20.8064 31.14 20.633 30.94C20.473 30.7267 20.393 30.4733 20.393 30.18C20.393 29.98 20.4264 29.8133 20.493 29.68C20.573 29.5333 20.693 29.3867 20.853 29.24C21.413 28.7733 22.0797 28.4067 22.853 28.14C23.6397 27.86 24.4397 27.72 25.253 27.72C26.6397 27.72 27.7397 28.06 28.553 28.74C29.3797 29.42 29.793 30.3267 29.793 31.46C29.7797 32.2333 29.573 32.9133 29.173 33.5C28.7864 34.0733 28.2397 34.4933 27.533 34.76ZM33.1252 42.68C33.0452 42.9333 32.9186 43.12 32.7452 43.24C32.5719 43.36 32.3786 43.42 32.1652 43.42C31.8986 43.42 31.6586 43.3267 31.4452 43.14C31.2452 42.9667 31.1452 42.74 31.1452 42.46C31.1452 42.34 31.1652 42.22 31.2052 42.1L35.8452 27.56C35.9252 27.3067 36.0519 27.12 36.2252 27C36.3986 26.88 36.5919 26.82 36.8052 26.82C37.0719 26.82 37.3052 26.9133 37.5052 27.1C37.7186 27.2733 37.8252 27.5 37.8252 27.78C37.8252 27.9 37.8052 28.02 37.7652 28.14L33.1252 42.68ZM44.3748 32.98C45.2548 32.98 46.0281 33.1733 46.6948 33.56C47.3748 33.9333 47.9014 34.46 48.2748 35.14C48.6481 35.82 48.8348 36.6 48.8348 37.48C48.8348 38.4 48.6214 39.2133 48.1948 39.92C47.7814 40.6267 47.1881 41.18 46.4148 41.58C45.6548 41.9667 44.7748 42.16 43.7748 42.16C42.9481 42.16 42.1348 42.0267 41.3348 41.76C40.5481 41.48 39.8748 41.1067 39.3148 40.64C39.0081 40.3733 38.8548 40.06 38.8548 39.7C38.8548 39.4067 38.9348 39.16 39.0948 38.96C39.2681 38.7467 39.4681 38.64 39.6948 38.64C39.8281 38.64 39.9548 38.6667 40.0748 38.72C40.1948 38.76 40.3348 38.8333 40.4948 38.94C41.0281 39.3133 41.5481 39.6 42.0548 39.8C42.5614 40 43.1014 40.1 43.6748 40.1C44.5548 40.1 45.2281 39.88 45.6948 39.44C46.1614 39 46.3948 38.3733 46.3948 37.56C46.3948 36.7733 46.1548 36.1533 45.6748 35.7C45.2081 35.2333 44.5614 35 43.7348 35C43.2148 35 42.7481 35.0733 42.3348 35.22C41.9348 35.3667 41.5214 35.6133 41.0948 35.96C40.8414 36.1333 40.5814 36.22 40.3148 36.22C40.0481 36.22 39.8214 36.14 39.6348 35.98C39.4481 35.82 39.3548 35.6067 39.3548 35.34V29.1C39.3548 28.7267 39.4614 28.4333 39.6748 28.22C39.8881 28.0067 40.1881 27.9 40.5748 27.9H47.2348C48.0348 27.9 48.4348 28.2333 48.4348 28.9C48.4348 29.5667 48.0348 29.9 47.2348 29.9H41.8748V33.7C42.5548 33.22 43.3881 32.98 44.3748 32.98Z" fill="#27A857"/>
<circle cx="35" cy="35" r="32.5" stroke="#D6F5E1" stroke-width="5"/>
<path d="M35 67.5C29.8722 67.5 24.8171 66.2866 20.2479 63.959C15.6788 61.6314 11.7252 58.2557 8.71039 54.1077C5.69557 49.9598 3.70505 45.1573 2.90151 40.0928C2.09797 35.0283 2.50422 29.8455 4.08706 24.9681C5.6699 20.0906 8.3844 15.6569 12.0087 12.0294C15.633 8.40179 20.0643 5.68331 24.9403 4.09608C29.8163 2.50886 34.9987 2.09795 40.0639 2.89693C45.1291 3.69592 49.9334 5.68212 54.0841 8.69321" stroke="#27A857" stroke-width="5" stroke-linecap="round"/>
</svg>
