<svg width="406" height="193" viewBox="0 0 406 193" fill="none" xmlns="http://www.w3.org/2000/svg">
<g filter="url(#filter0_d_501_5487)">
<rect x="60" y="40" width="313" height="118" rx="16" fill="white"/>
</g>
<g clip-path="url(#clip0_501_5487)">
<path d="M129.121 144L162.171 133.823L154.907 127.678L127.952 137.417L129.121 144Z" fill="#4E8F3D"/>
<path d="M159.741 127.829V133.591L129.593 142.438V137.188L159.741 127.829Z" fill="#ECEFF2"/>
<path opacity="0.38" d="M129.593 138.245V137.188L159.741 127.98V130.886L129.593 138.245Z" fill="#D3DBE0"/>
<path d="M105.503 106.767L125.961 134.409L129.593 137.188L160.646 127.706L136.571 97.9912L105.503 106.767Z" fill="#27A857"/>
<path d="M129.121 144L129.593 137.189L126.923 133.993L121.866 136.194L129.121 144Z" fill="#4E8F3D"/>
<path d="M126.924 139.578L127.143 137.608L124.592 135.005L123.194 135.617L126.924 139.578Z" fill="#27A857"/>
<path d="M159.742 130.176C159.766 130.263 153.361 132.319 145.433 134.771C137.503 137.226 131.058 139.143 131.03 139.06C131.006 138.977 137.411 136.917 145.339 134.465C153.269 132.01 159.717 130.09 159.742 130.176Z" fill="#A0927F"/>
<path d="M159.742 132.053C159.745 132.063 159.648 132.1 159.459 132.155C159.27 132.214 158.993 132.291 158.631 132.39C157.912 132.588 156.868 132.862 155.574 133.196C152.977 133.86 149.415 134.768 145.476 135.774C141.534 136.787 137.975 137.738 135.405 138.451C134.13 138.807 133.095 139.094 132.361 139.298C132.002 139.396 131.722 139.47 131.53 139.52C131.338 139.566 131.237 139.588 131.234 139.575C131.231 139.563 131.326 139.523 131.511 139.458C131.697 139.39 131.971 139.298 132.324 139.18C133.034 138.942 134.063 138.618 135.341 138.235C137.899 137.466 141.451 136.478 145.397 135.462C149.339 134.45 152.923 133.585 155.519 132.974C156.816 132.668 157.87 132.427 158.597 132.267C158.963 132.186 159.246 132.128 159.438 132.091C159.638 132.06 159.742 132.044 159.742 132.053Z" fill="#A0927F"/>
<path d="M97 112.615L111.586 141.051L137.569 129.722L138.595 132.034L152.386 127.989L150.563 125.213L177 126.14L153.866 99.439L97 112.615Z" fill="#EB763C"/>
<path d="M148.91 126.6L147.257 124.056C147.257 124.056 165.261 120.125 176.431 122.32C176.431 122.32 172.899 115.385 168.111 114.576C163.325 113.77 101.329 105.68 101.329 105.68L98.708 106.72L113.638 133.538C113.638 133.538 132.784 125.217 141.217 125.331L140.647 128.798L148.91 126.6Z" fill="#ACB8BF"/>
<path d="M174.266 117.009C174.266 117.009 155.918 115.622 143.609 124.753L152.84 95.7397H156.944L174.266 117.009Z" fill="#E3E8EC"/>
<path d="M99.5087 103.599C99.043 103.809 115.464 127.987 115.464 127.987C115.464 127.987 134.154 121.051 143.613 124.751L132.312 103.599C132.309 103.599 111.132 98.3987 99.5087 103.599Z" fill="#D3DBE0"/>
<path d="M102.127 100.708L116.828 123.132C116.828 123.132 137.57 117.006 143.61 125.213L130.96 101.749C130.96 101.749 118.198 94.2359 102.127 100.708Z" fill="#E3E8EC"/>
<path d="M103.497 94.8135L118.539 117.586L120.932 117.009C120.932 117.009 133.697 109.496 143.153 124.059L130.96 101.057C130.96 101.057 123.212 87.9955 103.497 94.8135Z" fill="#ECEFF2"/>
<path d="M151.36 91.0001C151.36 91.0001 134.951 90.8858 130.96 101.057L143.609 124.753C143.609 124.753 152.84 107.529 166.856 111.578L151.36 91.0001Z" fill="#ECEFF2"/>
<path d="M98.7079 112.22L112.593 139.09L137.569 127.989L139.171 130.704L151.552 126.723L152.386 127.989L138.595 132.035L137.569 129.722L111.586 141.051L97 112.615L98.7079 112.22Z" fill="#B26539"/>
<path d="M151.144 126.1L177 127.43V126.14L150.562 125.213L151.144 126.1Z" fill="#B26539"/>
<path d="M135.405 105.423C135.38 105.42 135.414 105.136 135.548 104.639C135.7 104.148 135.998 103.453 136.546 102.709C137.088 101.965 137.877 101.193 138.854 100.483C139.828 99.7694 140.982 99.121 142.242 98.5559C143.5 97.9877 144.739 97.5492 145.88 97.2034C147.019 96.8576 148.06 96.5982 148.94 96.4129C149.82 96.2245 150.538 96.1072 151.035 96.0424C151.534 95.9775 151.811 95.9652 151.817 95.993C151.826 96.0516 150.739 96.2647 149.007 96.7093C147.281 97.1663 144.897 97.8364 142.413 98.9511C139.929 100.044 137.88 101.496 136.781 102.894C136.227 103.586 135.898 104.234 135.703 104.695C135.527 105.164 135.438 105.433 135.405 105.423Z" fill="#B8AC98"/>
<path d="M136.75 107.496C136.726 107.492 136.76 107.208 136.894 106.711C137.046 106.22 137.344 105.525 137.892 104.781C138.434 104.037 139.223 103.265 140.2 102.555C141.174 101.842 142.328 101.193 143.588 100.628C144.845 100.06 146.085 99.6215 147.226 99.2757C148.365 98.9298 149.406 98.6704 150.286 98.4852C151.166 98.2968 151.884 98.1795 152.38 98.1146C152.88 98.0498 153.157 98.0374 153.163 98.0652C153.172 98.1239 152.085 98.337 150.353 98.7816C148.627 99.2386 146.243 99.9056 143.759 101.023C141.274 102.116 139.226 103.568 138.127 104.967C137.572 105.658 137.244 106.307 137.049 106.767C136.872 107.236 136.784 107.505 136.75 107.496Z" fill="#B8AC98"/>
<path d="M138.342 110.136C138.318 110.133 138.351 109.849 138.485 109.351C138.638 108.86 138.936 108.166 139.484 107.421C140.026 106.677 140.814 105.905 141.792 105.195C142.766 104.482 143.92 103.833 145.18 103.268C146.437 102.7 147.676 102.262 148.818 101.916C149.957 101.57 150.998 101.311 151.878 101.125C152.757 100.94 153.476 100.82 153.972 100.755C154.471 100.69 154.748 100.678 154.755 100.705C154.764 100.764 153.677 100.977 151.945 101.422C150.218 101.879 147.835 102.549 145.35 103.664C142.866 104.757 140.817 106.208 139.718 107.607C139.164 108.298 138.835 108.947 138.641 109.407C138.464 109.873 138.376 110.145 138.342 110.136Z" fill="#B8AC98"/>
<path d="M140.233 112.59C140.209 112.587 140.242 112.303 140.376 111.806C140.528 111.315 140.827 110.62 141.375 109.876C141.916 109.132 142.705 108.36 143.682 107.65C144.656 106.936 145.81 106.288 147.071 105.723C148.328 105.155 149.567 104.716 150.709 104.37C151.847 104.025 152.888 103.765 153.768 103.58C154.648 103.392 155.366 103.274 155.863 103.209C156.362 103.145 156.639 103.132 156.645 103.16C156.654 103.219 155.567 103.432 153.835 103.876C152.109 104.333 149.725 105 147.241 106.118C144.757 107.211 142.708 108.663 141.609 110.061C141.055 110.753 140.726 111.401 140.531 111.862C140.352 112.331 140.266 112.6 140.233 112.59Z" fill="#B8AC98"/>
<path d="M142.355 115.416C142.331 115.413 142.364 115.129 142.498 114.632C142.65 114.141 142.949 113.446 143.497 112.702C144.039 111.958 144.827 111.186 145.804 110.475C146.778 109.762 147.932 109.114 149.193 108.549C150.45 107.98 151.689 107.542 152.831 107.196C153.969 106.85 155.01 106.591 155.89 106.406C156.77 106.22 157.489 106.1 157.985 106.035C158.484 105.97 158.761 105.958 158.767 105.986C158.776 106.044 157.689 106.257 155.957 106.702C154.231 107.159 151.847 107.829 149.363 108.944C146.879 110.037 144.83 111.488 143.731 112.887C143.177 113.579 142.848 114.227 142.653 114.687C142.477 115.153 142.388 115.422 142.355 115.416Z" fill="#B8AC98"/>
<path d="M132.403 106.01C132.36 106.078 131.502 105.501 129.992 104.828C129.803 104.747 129.605 104.661 129.398 104.571C129.191 104.485 128.969 104.414 128.74 104.327C128.29 104.148 127.79 104.012 127.27 103.858C126.22 103.58 125.044 103.352 123.796 103.24C122.545 103.142 121.349 103.173 120.268 103.268C119.729 103.336 119.215 103.386 118.74 103.488C118.502 103.534 118.271 103.565 118.052 103.617C117.832 103.67 117.625 103.722 117.424 103.772C115.826 104.182 114.885 104.608 114.855 104.534C114.843 104.507 115.068 104.383 115.491 104.179C115.598 104.13 115.717 104.074 115.844 104.012C115.975 103.957 116.121 103.904 116.277 103.846C116.59 103.731 116.94 103.583 117.345 103.478C117.546 103.42 117.759 103.358 117.978 103.296C118.198 103.234 118.435 103.194 118.676 103.139C119.157 103.021 119.68 102.956 120.228 102.876C121.33 102.756 122.554 102.712 123.833 102.814C125.108 102.929 126.311 103.176 127.376 103.481C127.906 103.651 128.412 103.802 128.865 104C129.093 104.096 129.319 104.173 129.526 104.272C129.733 104.371 129.931 104.466 130.119 104.559C130.503 104.732 130.826 104.936 131.115 105.102C131.258 105.189 131.395 105.263 131.514 105.34C131.629 105.421 131.736 105.495 131.833 105.563C132.214 105.825 132.418 105.986 132.403 106.01Z" fill="#B8AC98"/>
<path d="M133.146 107.823C133.121 107.885 132.211 107.511 130.726 106.977C129.243 106.449 127.161 105.766 124.789 105.495C122.417 105.223 120.241 105.519 118.755 105.992C117.257 106.455 116.426 106.995 116.387 106.927C116.371 106.906 116.566 106.748 116.947 106.511C117.327 106.273 117.906 105.976 118.661 105.702C120.162 105.14 122.402 104.785 124.838 105.062C127.27 105.34 129.368 106.085 130.835 106.69C132.303 107.304 133.167 107.774 133.146 107.823Z" fill="#B8AC98"/>
<path d="M134.482 110.306C134.443 110.367 133.636 109.839 132.214 109.246C130.802 108.654 128.738 108.051 126.403 107.996C124.068 107.937 121.976 108.434 120.536 108.959C119.09 109.481 118.256 109.969 118.223 109.904C118.207 109.879 118.402 109.731 118.774 109.503C119.145 109.274 119.708 108.975 120.43 108.675C121.867 108.067 124.01 107.505 126.412 107.567C128.814 107.625 130.927 108.292 132.333 108.969C133.039 109.305 133.587 109.629 133.947 109.879C134.315 110.123 134.498 110.281 134.482 110.306Z" fill="#B8AC98"/>
<path d="M130.229 103.207C130.19 103.268 129.352 102.709 127.918 101.981C127.2 101.622 126.329 101.224 125.325 100.903C124.323 100.579 123.184 100.332 121.976 100.288C119.546 100.196 117.37 100.789 115.823 101.202C114.271 101.635 113.312 101.922 113.29 101.86C113.275 101.808 114.197 101.422 115.738 100.909C116.508 100.659 117.44 100.384 118.496 100.165C119.552 99.955 120.74 99.8037 121.994 99.8562C123.248 99.9025 124.427 100.168 125.449 100.523C126.475 100.875 127.349 101.311 128.062 101.709C128.774 102.11 129.319 102.478 129.687 102.746C130.056 103.015 130.247 103.182 130.229 103.207Z" fill="#B8AC98"/>
<path d="M128.278 100.149C128.241 100.214 127.398 99.7139 125.955 99.0932C125.772 99.0161 125.583 98.9389 125.385 98.8555C125.188 98.7752 124.974 98.7042 124.761 98.6239C124.332 98.4572 123.86 98.3182 123.367 98.1638C122.372 97.8828 121.263 97.6296 120.082 97.4629C118.901 97.3085 117.765 97.2529 116.73 97.2591C116.213 97.2776 115.723 97.2807 115.266 97.3301C115.038 97.3517 114.815 97.361 114.602 97.3857C114.392 97.4135 114.188 97.4382 113.993 97.4629C112.441 97.6728 111.497 97.9291 111.479 97.8581C111.47 97.8303 111.698 97.7408 112.121 97.6049C112.331 97.5339 112.593 97.4567 112.901 97.3857C113.208 97.3146 113.555 97.2189 113.948 97.1602C114.143 97.1263 114.35 97.0923 114.563 97.0553C114.776 97.0213 115.001 97.0028 115.236 96.975C115.698 96.9132 116.198 96.8916 116.724 96.8638C117.775 96.836 118.934 96.8793 120.14 97.0367C121.343 97.2066 122.472 97.4752 123.48 97.784C123.979 97.9538 124.457 98.1051 124.886 98.2904C125.102 98.38 125.315 98.4572 125.513 98.5498C125.711 98.6424 125.9 98.732 126.08 98.8153C126.442 98.979 126.755 99.1612 127.032 99.3125C127.313 99.4607 127.541 99.6058 127.727 99.7324C128.095 99.9764 128.293 100.125 128.278 100.149Z" fill="#B8AC98"/>
<path d="M150.186 94.3626C150.192 94.4367 149.163 94.5448 147.54 94.9092C147.336 94.9555 147.126 95.0049 146.904 95.0574C146.685 95.1099 146.456 95.1809 146.222 95.2427C145.747 95.3631 145.254 95.5329 144.73 95.6997C143.692 96.0579 142.572 96.5087 141.43 97.0645C140.295 97.6296 139.253 98.2503 138.334 98.8555C137.88 99.1704 137.445 99.4607 137.058 99.7633C136.864 99.9115 136.669 100.05 136.492 100.193C136.316 100.338 136.148 100.477 135.984 100.606C134.699 101.675 133.977 102.428 133.926 102.379C133.904 102.357 134.066 102.153 134.376 101.795C134.528 101.616 134.723 101.4 134.964 101.165C135.201 100.931 135.466 100.65 135.786 100.375C135.944 100.233 136.109 100.088 136.282 99.9331C136.456 99.7818 136.647 99.6336 136.839 99.4761C137.22 99.155 137.655 98.8493 138.109 98.522C139.031 97.889 140.084 97.2498 141.238 96.6754C142.398 96.1104 143.543 95.6657 144.602 95.323C145.138 95.1655 145.643 95.0049 146.128 94.8999C146.368 94.8443 146.599 94.7795 146.825 94.7363C147.05 94.693 147.266 94.6529 147.473 94.6128C147.884 94.5263 148.265 94.4892 148.593 94.4429C148.925 94.3966 149.211 94.375 149.446 94.3626C149.924 94.3348 150.183 94.3348 150.186 94.3626Z" fill="#B8AC98"/>
</g>
<path d="M99.94 66.74C100.753 66.9667 101.38 67.3733 101.82 67.96C102.273 68.5467 102.5 69.28 102.5 70.16C102.5 71.3733 102.08 72.32 101.24 73C100.413 73.6667 99.2533 74 97.76 74H92.66C92.34 74 92.0867 73.9133 91.9 73.74C91.7267 73.5533 91.64 73.3067 91.64 73V60.9C91.64 60.5933 91.7267 60.3533 91.9 60.18C92.0867 59.9933 92.34 59.9 92.66 59.9H97.54C98.9933 59.9 100.127 60.2267 100.94 60.88C101.767 61.52 102.18 62.42 102.18 63.58C102.18 64.3267 101.98 64.9733 101.58 65.52C101.193 66.0667 100.647 66.4733 99.94 66.74ZM93.66 66H97.22C99.1933 66 100.18 65.2533 100.18 63.76C100.18 63.0133 99.9333 62.46 99.44 62.1C98.96 61.74 98.22 61.56 97.22 61.56H93.66V66ZM97.54 72.34C98.5667 72.34 99.32 72.1533 99.8 71.78C100.28 71.4067 100.52 70.8267 100.52 70.04C100.52 69.24 100.273 68.6467 99.78 68.26C99.3 67.86 98.5533 67.66 97.54 67.66H93.66V72.34H97.54ZM109.195 74.14C108.235 74.14 107.388 73.9333 106.655 73.52C105.935 73.1067 105.375 72.52 104.975 71.76C104.588 70.9867 104.395 70.0933 104.395 69.08C104.395 68.0533 104.588 67.16 104.975 66.4C105.375 65.6267 105.935 65.0333 106.655 64.62C107.388 64.2067 108.235 64 109.195 64C110.155 64 110.995 64.2067 111.715 64.62C112.448 65.0333 113.008 65.6267 113.395 66.4C113.795 67.16 113.995 68.0533 113.995 69.08C113.995 70.0933 113.795 70.9867 113.395 71.76C113.008 72.52 112.448 73.1067 111.715 73.52C110.995 73.9333 110.155 74.14 109.195 74.14ZM109.195 72.54C110.088 72.54 110.768 72.2467 111.235 71.66C111.715 71.0733 111.955 70.2133 111.955 69.08C111.955 67.96 111.715 67.1067 111.235 66.52C110.755 65.92 110.075 65.62 109.195 65.62C108.315 65.62 107.635 65.92 107.155 66.52C106.675 67.1067 106.435 67.96 106.435 69.08C106.435 70.2133 106.668 71.0733 107.135 71.66C107.615 72.2467 108.301 72.54 109.195 72.54ZM120.484 74.14C119.524 74.14 118.677 73.9333 117.944 73.52C117.224 73.1067 116.664 72.52 116.264 71.76C115.877 70.9867 115.684 70.0933 115.684 69.08C115.684 68.0533 115.877 67.16 116.264 66.4C116.664 65.6267 117.224 65.0333 117.944 64.62C118.677 64.2067 119.524 64 120.484 64C121.444 64 122.284 64.2067 123.004 64.62C123.737 65.0333 124.297 65.6267 124.684 66.4C125.084 67.16 125.284 68.0533 125.284 69.08C125.284 70.0933 125.084 70.9867 124.684 71.76C124.297 72.52 123.737 73.1067 123.004 73.52C122.284 73.9333 121.444 74.14 120.484 74.14ZM120.484 72.54C121.377 72.54 122.057 72.2467 122.524 71.66C123.004 71.0733 123.244 70.2133 123.244 69.08C123.244 67.96 123.004 67.1067 122.524 66.52C122.044 65.92 121.364 65.62 120.484 65.62C119.604 65.62 118.924 65.92 118.444 66.52C117.964 67.1067 117.724 67.96 117.724 69.08C117.724 70.2133 117.957 71.0733 118.424 71.66C118.904 72.2467 119.59 72.54 120.484 72.54ZM135.733 72.42C135.973 72.62 136.093 72.8667 136.093 73.16C136.093 73.4133 136.006 73.6333 135.833 73.82C135.659 74.0067 135.453 74.1 135.213 74.1C134.959 74.1 134.733 74.0067 134.533 73.82L129.553 69.42V73.12C129.553 73.44 129.459 73.6867 129.273 73.86C129.086 74.02 128.846 74.1 128.553 74.1C128.259 74.1 128.013 74.02 127.813 73.86C127.626 73.6867 127.533 73.44 127.533 73.12V60.78C127.533 60.46 127.626 60.22 127.813 60.06C128.013 59.8867 128.259 59.8 128.553 59.8C128.846 59.8 129.086 59.8867 129.273 60.06C129.459 60.22 129.553 60.46 129.553 60.78V68.62L134.113 64.36C134.339 64.16 134.559 64.06 134.773 64.06C135.026 64.06 135.246 64.1533 135.433 64.34C135.619 64.5267 135.713 64.7467 135.713 65C135.713 65.2533 135.599 65.4867 135.373 65.7L131.813 68.96L135.733 72.42ZM141.109 74.14C139.749 74.14 138.635 73.86 137.769 73.3C137.529 73.1533 137.355 73 137.249 72.84C137.155 72.68 137.109 72.5 137.109 72.3C137.109 72.0867 137.169 71.9067 137.289 71.76C137.409 71.6133 137.562 71.54 137.749 71.54C137.922 71.54 138.195 71.6467 138.569 71.86C138.969 72.0733 139.355 72.2467 139.729 72.38C140.115 72.5133 140.595 72.58 141.169 72.58C141.809 72.58 142.309 72.4667 142.669 72.24C143.029 72.0133 143.209 71.6933 143.209 71.28C143.209 71.0133 143.135 70.8 142.989 70.64C142.855 70.48 142.615 70.34 142.269 70.22C141.922 70.0867 141.409 69.9467 140.729 69.8C139.555 69.5467 138.709 69.2067 138.189 68.78C137.682 68.34 137.429 67.7467 137.429 67C137.429 66.4267 137.595 65.9133 137.929 65.46C138.262 64.9933 138.722 64.6333 139.309 64.38C139.895 64.1267 140.562 64 141.309 64C141.842 64 142.362 64.0733 142.869 64.22C143.375 64.3533 143.822 64.5533 144.209 64.82C144.649 65.1133 144.869 65.4533 144.869 65.84C144.869 66.0533 144.802 66.2333 144.669 66.38C144.549 66.5267 144.402 66.6 144.229 66.6C144.109 66.6 143.989 66.5733 143.869 66.52C143.749 66.4667 143.589 66.38 143.389 66.26C143.029 66.0467 142.689 65.88 142.369 65.76C142.062 65.64 141.675 65.58 141.209 65.58C140.649 65.58 140.195 65.7 139.849 65.94C139.515 66.18 139.349 66.5067 139.349 66.92C139.349 67.2933 139.502 67.5867 139.809 67.8C140.129 68 140.722 68.1933 141.589 68.38C142.482 68.5667 143.182 68.78 143.689 69.02C144.195 69.26 144.555 69.56 144.769 69.92C144.995 70.2667 145.109 70.7133 145.109 71.26C145.109 72.1267 144.742 72.8267 144.009 73.36C143.289 73.88 142.322 74.14 141.109 74.14ZM157.41 72.56C157.704 72.5867 157.91 72.6667 158.03 72.8C158.164 72.92 158.23 73.0933 158.23 73.32C158.23 73.5867 158.124 73.7933 157.91 73.94C157.71 74.0733 157.41 74.1267 157.01 74.1L156.47 74.06C155.39 73.98 154.584 73.6533 154.05 73.08C153.517 72.4933 153.25 71.6333 153.25 70.5V65.8H152.05C151.464 65.8 151.17 65.54 151.17 65.02C151.17 64.78 151.244 64.5933 151.39 64.46C151.55 64.3133 151.77 64.24 152.05 64.24H153.25V62.18C153.25 61.8733 153.337 61.6333 153.51 61.46C153.697 61.2867 153.944 61.2 154.25 61.2C154.557 61.2 154.804 61.2867 154.99 61.46C155.177 61.6333 155.27 61.8733 155.27 62.18V64.24H157.25C157.53 64.24 157.744 64.3133 157.89 64.46C158.05 64.5933 158.13 64.78 158.13 65.02C158.13 65.2733 158.05 65.4667 157.89 65.6C157.744 65.7333 157.53 65.8 157.25 65.8H155.27V70.64C155.27 71.2667 155.397 71.7267 155.65 72.02C155.917 72.3133 156.317 72.48 156.85 72.52L157.41 72.56ZM164.961 64C167.281 64 168.441 65.3133 168.441 67.94V73.14C168.441 73.4333 168.348 73.6667 168.161 73.84C167.975 74.0133 167.728 74.1 167.421 74.1C167.115 74.1 166.868 74.0133 166.681 73.84C166.508 73.6667 166.421 73.4333 166.421 73.14V67.96C166.421 67.16 166.255 66.5733 165.921 66.2C165.601 65.8267 165.095 65.64 164.401 65.64C163.588 65.64 162.935 65.8933 162.441 66.4C161.948 66.9067 161.701 67.5867 161.701 68.44V73.14C161.701 73.4333 161.608 73.6667 161.421 73.84C161.248 74.0133 161.008 74.1 160.701 74.1C160.395 74.1 160.148 74.0133 159.961 73.84C159.775 73.6667 159.681 73.4333 159.681 73.14V60.76C159.681 60.4667 159.775 60.2333 159.961 60.06C160.161 59.8867 160.415 59.8 160.721 59.8C161.015 59.8 161.248 59.8867 161.421 60.06C161.608 60.22 161.701 60.44 161.701 60.72V65.72C162.035 65.16 162.481 64.7333 163.041 64.44C163.601 64.1467 164.241 64 164.961 64ZM172.225 74.1C171.931 74.1 171.685 74.02 171.485 73.86C171.298 73.7 171.205 73.46 171.205 73.14V65.02C171.205 64.7 171.298 64.46 171.485 64.3C171.685 64.1267 171.931 64.04 172.225 64.04C172.518 64.04 172.758 64.1267 172.945 64.3C173.131 64.46 173.225 64.7 173.225 65.02V73.14C173.225 73.46 173.131 73.7 172.945 73.86C172.758 74.02 172.518 74.1 172.225 74.1ZM172.225 62.08C171.838 62.08 171.531 61.9733 171.305 61.76C171.078 61.5467 170.965 61.2667 170.965 60.92C170.965 60.5733 171.078 60.3 171.305 60.1C171.531 59.8867 171.838 59.78 172.225 59.78C172.598 59.78 172.898 59.8867 173.125 60.1C173.365 60.3 173.485 60.5733 173.485 60.92C173.485 61.2667 173.371 61.5467 173.145 61.76C172.918 61.9733 172.611 62.08 172.225 62.08ZM179.448 74.14C178.088 74.14 176.975 73.86 176.108 73.3C175.868 73.1533 175.695 73 175.588 72.84C175.495 72.68 175.448 72.5 175.448 72.3C175.448 72.0867 175.508 71.9067 175.628 71.76C175.748 71.6133 175.902 71.54 176.088 71.54C176.262 71.54 176.535 71.6467 176.908 71.86C177.308 72.0733 177.695 72.2467 178.068 72.38C178.455 72.5133 178.935 72.58 179.508 72.58C180.148 72.58 180.648 72.4667 181.008 72.24C181.368 72.0133 181.548 71.6933 181.548 71.28C181.548 71.0133 181.475 70.8 181.328 70.64C181.195 70.48 180.955 70.34 180.608 70.22C180.262 70.0867 179.748 69.9467 179.068 69.8C177.895 69.5467 177.048 69.2067 176.528 68.78C176.022 68.34 175.768 67.7467 175.768 67C175.768 66.4267 175.935 65.9133 176.268 65.46C176.602 64.9933 177.062 64.6333 177.648 64.38C178.235 64.1267 178.902 64 179.648 64C180.182 64 180.702 64.0733 181.208 64.22C181.715 64.3533 182.162 64.5533 182.548 64.82C182.988 65.1133 183.208 65.4533 183.208 65.84C183.208 66.0533 183.142 66.2333 183.008 66.38C182.888 66.5267 182.742 66.6 182.568 66.6C182.448 66.6 182.328 66.5733 182.208 66.52C182.088 66.4667 181.928 66.38 181.728 66.26C181.368 66.0467 181.028 65.88 180.708 65.76C180.402 65.64 180.015 65.58 179.548 65.58C178.988 65.58 178.535 65.7 178.188 65.94C177.855 66.18 177.688 66.5067 177.688 66.92C177.688 67.2933 177.842 67.5867 178.148 67.8C178.468 68 179.062 68.1933 179.928 68.38C180.822 68.5667 181.522 68.78 182.028 69.02C182.535 69.26 182.895 69.56 183.108 69.92C183.335 70.2667 183.448 70.7133 183.448 71.26C183.448 72.1267 183.082 72.8267 182.348 73.36C181.628 73.88 180.662 74.14 179.448 74.14ZM204.25 64.66C204.397 64.26 204.67 64.06 205.07 64.06C205.324 64.06 205.55 64.1467 205.75 64.32C205.95 64.4933 206.05 64.7067 206.05 64.96C206.05 65.0933 206.024 65.2133 205.97 65.32L202.65 73.42C202.57 73.6333 202.437 73.8 202.25 73.92C202.064 74.0267 201.857 74.08 201.63 74.08C201.417 74.08 201.217 74.0267 201.03 73.92C200.844 73.8 200.71 73.6333 200.63 73.42L198.03 67L195.49 73.42C195.41 73.6333 195.277 73.8 195.09 73.92C194.917 74.0267 194.717 74.08 194.49 74.08C194.277 74.08 194.07 74.0267 193.87 73.92C193.684 73.8 193.544 73.6333 193.45 73.42L190.15 65.32C190.097 65.2133 190.07 65.1 190.07 64.98C190.07 64.7133 190.177 64.4933 190.39 64.32C190.617 64.1467 190.864 64.06 191.13 64.06C191.53 64.06 191.804 64.2533 191.95 64.64L194.53 71.46L197.17 64.7C197.25 64.4867 197.377 64.3267 197.55 64.22C197.724 64.1133 197.91 64.06 198.11 64.06C198.297 64.06 198.477 64.1133 198.65 64.22C198.824 64.3267 198.95 64.4867 199.03 64.7L201.67 71.42L204.25 64.66ZM215.427 71.54C215.613 71.54 215.767 71.6133 215.887 71.76C216.007 71.9067 216.067 72.0933 216.067 72.32C216.067 72.7067 215.827 73.0333 215.347 73.3C214.88 73.5667 214.367 73.7733 213.807 73.92C213.26 74.0667 212.733 74.14 212.227 74.14C210.68 74.14 209.46 73.6933 208.567 72.8C207.673 71.8933 207.227 70.66 207.227 69.1C207.227 68.1 207.42 67.2133 207.807 66.44C208.207 65.6667 208.76 65.0667 209.467 64.64C210.187 64.2133 211 64 211.907 64C213.213 64 214.247 64.42 215.007 65.26C215.767 66.1 216.147 67.2333 216.147 68.66C216.147 69.1933 215.907 69.46 215.427 69.46H209.247C209.38 71.5267 210.373 72.56 212.227 72.56C212.72 72.56 213.147 72.4933 213.507 72.36C213.867 72.2267 214.247 72.0533 214.647 71.84C214.687 71.8133 214.793 71.76 214.967 71.68C215.153 71.5867 215.307 71.54 215.427 71.54ZM211.947 65.48C211.173 65.48 210.553 65.7267 210.087 66.22C209.62 66.7133 209.34 67.4067 209.247 68.3H214.407C214.367 67.3933 214.133 66.7 213.707 66.22C213.293 65.7267 212.707 65.48 211.947 65.48ZM226.013 71.54C226.199 71.54 226.353 71.6133 226.473 71.76C226.593 71.9067 226.653 72.0933 226.653 72.32C226.653 72.7067 226.413 73.0333 225.933 73.3C225.466 73.5667 224.953 73.7733 224.393 73.92C223.846 74.0667 223.319 74.14 222.813 74.14C221.266 74.14 220.046 73.6933 219.153 72.8C218.259 71.8933 217.813 70.66 217.813 69.1C217.813 68.1 218.006 67.2133 218.393 66.44C218.793 65.6667 219.346 65.0667 220.053 64.64C220.773 64.2133 221.586 64 222.493 64C223.799 64 224.833 64.42 225.593 65.26C226.353 66.1 226.733 67.2333 226.733 68.66C226.733 69.1933 226.493 69.46 226.013 69.46H219.833C219.966 71.5267 220.959 72.56 222.813 72.56C223.306 72.56 223.733 72.4933 224.093 72.36C224.453 72.2267 224.833 72.0533 225.233 71.84C225.273 71.8133 225.379 71.76 225.553 71.68C225.739 71.5867 225.893 71.54 226.013 71.54ZM222.533 65.48C221.759 65.48 221.139 65.7267 220.673 66.22C220.206 66.7133 219.926 67.4067 219.833 68.3H224.993C224.953 67.3933 224.719 66.7 224.293 66.22C223.879 65.7267 223.293 65.48 222.533 65.48ZM237.159 72.42C237.399 72.62 237.519 72.8667 237.519 73.16C237.519 73.4133 237.432 73.6333 237.259 73.82C237.085 74.0067 236.879 74.1 236.639 74.1C236.385 74.1 236.159 74.0067 235.959 73.82L230.979 69.42V73.12C230.979 73.44 230.885 73.6867 230.699 73.86C230.512 74.02 230.272 74.1 229.979 74.1C229.685 74.1 229.439 74.02 229.239 73.86C229.052 73.6867 228.959 73.44 228.959 73.12V60.78C228.959 60.46 229.052 60.22 229.239 60.06C229.439 59.8867 229.685 59.8 229.979 59.8C230.272 59.8 230.512 59.8867 230.699 60.06C230.885 60.22 230.979 60.46 230.979 60.78V68.62L235.539 64.36C235.765 64.16 235.985 64.06 236.199 64.06C236.452 64.06 236.672 64.1533 236.859 64.34C237.045 64.5267 237.139 64.7467 237.139 65C237.139 65.2533 237.025 65.4867 236.799 65.7L233.239 68.96L237.159 72.42Z" fill="#27A857"/>
<path d="M300.533 98.76C301.373 98.9733 302.013 99.38 302.453 99.98C302.906 100.567 303.133 101.3 303.133 102.18C303.133 103.393 302.686 104.36 301.793 105.08C300.9 105.8 299.693 106.16 298.173 106.16C297.306 106.16 296.473 106.027 295.673 105.76C294.873 105.493 294.193 105.12 293.633 104.64C293.326 104.373 293.173 104.06 293.173 103.7C293.173 103.407 293.253 103.16 293.413 102.96C293.586 102.747 293.786 102.64 294.013 102.64C294.146 102.64 294.266 102.667 294.373 102.72C294.48 102.76 294.626 102.833 294.813 102.94C295.373 103.313 295.906 103.6 296.413 103.8C296.92 104 297.473 104.1 298.073 104.1C298.953 104.1 299.606 103.927 300.033 103.58C300.46 103.22 300.673 102.68 300.673 101.96C300.673 101.253 300.446 100.733 299.993 100.4C299.553 100.053 298.866 99.88 297.933 99.88H296.793C296.486 99.88 296.246 99.78 296.073 99.58C295.913 99.3667 295.833 99.1267 295.833 98.86C295.833 98.58 295.913 98.34 296.073 98.14C296.246 97.94 296.486 97.84 296.793 97.84H297.593C299.42 97.84 300.333 97.1533 300.333 95.78C300.333 95.14 300.14 94.6467 299.753 94.3C299.366 93.9533 298.833 93.78 298.153 93.78C297.18 93.78 296.14 94.1667 295.033 94.94C294.846 95.0467 294.7 95.1267 294.593 95.18C294.486 95.22 294.366 95.24 294.233 95.24C294.006 95.24 293.806 95.14 293.633 94.94C293.473 94.7267 293.393 94.4733 293.393 94.18C293.393 93.98 293.426 93.8133 293.493 93.68C293.573 93.5333 293.693 93.3867 293.853 93.24C294.413 92.7733 295.08 92.4067 295.853 92.14C296.64 91.86 297.44 91.72 298.253 91.72C299.64 91.72 300.74 92.06 301.553 92.74C302.38 93.42 302.793 94.3267 302.793 95.46C302.78 96.2333 302.573 96.9133 302.173 97.5C301.786 98.0733 301.24 98.4933 300.533 98.76ZM306.125 106.68C306.045 106.933 305.919 107.12 305.745 107.24C305.572 107.36 305.379 107.42 305.165 107.42C304.899 107.42 304.659 107.327 304.445 107.14C304.245 106.967 304.145 106.74 304.145 106.46C304.145 106.34 304.165 106.22 304.205 106.1L308.845 91.56C308.925 91.3067 309.052 91.12 309.225 91C309.399 90.88 309.592 90.82 309.805 90.82C310.072 90.82 310.305 90.9133 310.505 91.1C310.719 91.2733 310.825 91.5 310.825 91.78C310.825 91.9 310.805 92.02 310.765 92.14L306.125 106.68ZM317.375 96.98C318.255 96.98 319.028 97.1733 319.695 97.56C320.375 97.9333 320.901 98.46 321.275 99.14C321.648 99.82 321.835 100.6 321.835 101.48C321.835 102.4 321.621 103.213 321.195 103.92C320.781 104.627 320.188 105.18 319.415 105.58C318.655 105.967 317.775 106.16 316.775 106.16C315.948 106.16 315.135 106.027 314.335 105.76C313.548 105.48 312.875 105.107 312.315 104.64C312.008 104.373 311.855 104.06 311.855 103.7C311.855 103.407 311.935 103.16 312.095 102.96C312.268 102.747 312.468 102.64 312.695 102.64C312.828 102.64 312.955 102.667 313.075 102.72C313.195 102.76 313.335 102.833 313.495 102.94C314.028 103.313 314.548 103.6 315.055 103.8C315.561 104 316.101 104.1 316.675 104.1C317.555 104.1 318.228 103.88 318.695 103.44C319.161 103 319.395 102.373 319.395 101.56C319.395 100.773 319.155 100.153 318.675 99.7C318.208 99.2333 317.561 99 316.735 99C316.215 99 315.748 99.0733 315.335 99.22C314.935 99.3667 314.521 99.6133 314.095 99.96C313.841 100.133 313.581 100.22 313.315 100.22C313.048 100.22 312.821 100.14 312.635 99.98C312.448 99.82 312.355 99.6067 312.355 99.34V93.1C312.355 92.7267 312.461 92.4333 312.675 92.22C312.888 92.0067 313.188 91.9 313.575 91.9H320.235C321.035 91.9 321.435 92.2333 321.435 92.9C321.435 93.5667 321.035 93.9 320.235 93.9H314.875V97.7C315.555 97.22 316.388 96.98 317.375 96.98Z" fill="#27A857"/>
<circle cx="308" cy="99" r="32.5" stroke="#D6F5E1" stroke-width="5"/>
<path d="M308 131.5C302.872 131.5 297.817 130.287 293.248 127.959C288.679 125.631 284.725 122.256 281.71 118.108C278.696 113.96 276.705 109.157 275.902 104.093C275.098 99.0283 275.504 93.8455 277.087 88.9681C278.67 84.0906 281.384 79.6569 285.009 76.0294C288.633 72.4018 293.064 69.6833 297.94 68.0961C302.816 66.5089 307.999 66.0979 313.064 66.8969C318.129 67.6959 322.933 69.6821 327.084 72.6932" stroke="#27A857" stroke-width="5" stroke-linecap="round"/>
<defs>
<filter id="filter0_d_501_5487" x="0" y="0" width="433" height="238" filterUnits="userSpaceOnUse" color-interpolation-filters="sRGB">
<feFlood flood-opacity="0" result="BackgroundImageFix"/>
<feColorMatrix in="SourceAlpha" type="matrix" values="0 0 0 0 0 0 0 0 0 0 0 0 0 0 0 0 0 0 127 0" result="hardAlpha"/>
<feOffset dy="20"/>
<feGaussianBlur stdDeviation="30"/>
<feColorMatrix type="matrix" values="0 0 0 0 0.500295 0 0 0 0 0.562786 0 0 0 0 0.608038 0 0 0 0.2 0"/>
<feBlend mode="normal" in2="BackgroundImageFix" result="effect1_dropShadow_501_5487"/>
<feBlend mode="normal" in="SourceGraphic" in2="effect1_dropShadow_501_5487" result="shape"/>
</filter>
<clipPath id="clip0_501_5487">
<rect width="80" height="53" fill="white" transform="translate(97 91)"/>
</clipPath>
</defs>
</svg>
